# xmcd
#
# Track frame offsets:
#	150
#	13110
#	26230
#	39367
#	51232
#	63690
#	77177
#	90845
#	103382
#	116880
#	125725
#	138402
#
# Disc length: 1998
#
# Revision: 2
# Processed by: cddbd v1.5.1PL0 Copyright (c) Steve Scherf et al.
# Submitted via: CDex 1.51
# Normalized: r0:TDELIM( - );r1:TSWAP
#
DISCID=ac07cc0c
DTITLE=Various Artist - Country Legends Volume Two Disc 1
DYEAR=1900
DGENRE=Country
TTITLE0=Carter Family - Keep On The Sunny Side
TTITLE1=Jimmie Rogers - In The Jailhouse Now No. 2
TTITLE2=Sons Of The Pioneers - Cool Water
TTITLE3=Elton Britt and The Skytoppers - Chime Bells
TTITLE4=Eddy Arnold - I'll Hold You In My Heart
TTITLE5=Vaughn Monroe and The Quartet - Riders In The Sky
TTITLE6=Pee Wee King - Slow Poke
TTITLE7=Homer and Jethro - How Much Is That Hound Dog In The Window
TTITLE8=The Davis Sisters - I Forgot More Than You'll Ever Know
TTITLE9=Johnnie and Jack - Oh Baby Mine
TTITLE10=Porter Wagoner - A Satisfied Mind
TTITLE11=Don Gibson - Oh Lonsome Me
EXTD=
EXTT0=
EXTT1=
EXTT2=
EXTT3=
EXTT4=
EXTT5=
EXTT6=
EXTT7=
EXTT8=
EXTT9=
EXTT10=
EXTT11=
PLAYORDER=
